{"glyphs":{":":{"x_min":0,"x_max":175,"ha":175,"o":"m 43 292 q 43 311 56 323 q 68 335 85 335 q 101 335 114 323 q 127 311 127 292 q 127 273 114 262 q 101 250 85 250 q 68 250 56 262 q 43 273 43 292 z m 43 42 q 43 61 56 73 q 68 85 85 85 q 101 85 114 73 q 127 61 127 42 q 127 23 114 12 q 101 0 85 0 q 68 0 56 12 q 43 23 43 42 z"},"$":{"x_min":0,"x_max":567,"ha":567,"o":"m 353 546 l 353 619 q 338 628 317 634 q 296 641 270 643 l 270 393 q 303 382 336 368 q 370 355 396 332 q 422 310 439 275 q 456 240 456 187 q 456 145 442 111 q 428 77 402 52 q 377 27 343 12 q 309 -4 270 -7 l 270 -68 l 207 -68 l 207 -5 q 142 2 96 29 q 49 56 28 84 l 28 195 l 88 195 l 88 106 q 110 87 140 73 q 169 59 207 54 l 207 350 q 178 359 150 371 q 123 383 102 402 q 81 420 68 448 q 55 475 54 517 q 53 547 61 577 q 69 607 87 633 q 105 659 135 677 q 165 695 207 701 l 207 764 l 270 764 l 270 703 q 302 700 340 689 q 378 678 413 649 l 413 546 z m 394 186 q 394 220 384 244 q 374 267 356 284 q 339 300 316 311 q 294 322 270 330 l 270 54 q 295 58 318 68 q 340 79 357 96 q 374 112 384 135 q 394 158 394 186 z m 116 519 q 116 496 123 480 q 130 463 142 451 q 155 439 172 430 q 188 421 207 414 l 207 638 q 161 629 138 595 q 116 561 116 519 z"},"?":{"x_min":0,"x_max":452,"ha":452,"o":"m 93 565 q 79 570 66 575 q 52 580 38 585 q 46 609 60 635 q 75 661 98 682 q 121 704 154 718 q 188 732 233 732 q 274 732 310 716 q 346 701 372 674 q 399 648 414 612 q 429 577 429 537 q 429 482 402 440 q 376 399 331 366 q 316 354 300 344 q 283 334 270 321 q 256 308 248 289 q 239 270 239 242 l 239 164 l 176 164 l 176 261 q 176 292 186 312 q 197 332 214 347 q 232 362 254 376 q 276 389 299 409 q 334 436 350 468 q 366 500 366 537 q 366 566 356 590 q 346 615 328 633 q 311 651 286 661 q 262 671 233 671 q 176 671 142 644 q 109 616 93 565 z m 207 8 q 191 8 178 20 q 165 31 165 50 q 165 68 178 80 q 191 93 207 93 q 223 93 236 80 q 249 68 249 50 q 249 31 236 20 q 223 8 207 8 z"},"<":{"x_min":0,"x_max":680,"ha":680,"o":"m 553 70 l 553 -14 q 443 49 334 112 q 226 175 116 238 q 226 301 334 364 q 443 427 553 490 l 553 406 q 480 364 407 322 q 334 280 261 238 q 334 196 407 154 q 480 112 553 70 z"},"'":{"x_min":0,"x_max":158,"ha":158,"o":"m 49 472 l 49 720 l 114 720 q 113 657 112 596 q 111 535 110 472 z"},"=":{"x_min":0,"x_max":708,"ha":708,"o":"m 606 184 l 606 123 l 100 123 l 100 184 z m 606 378 l 606 317 l 100 317 l 100 378 z"},"a":{"x_min":0,"x_max":542,"ha":542,"o":"m 35 187 q 35 227 50 262 q 66 298 92 325 q 119 352 156 368 q 192 384 234 384 q 262 384 286 376 q 311 368 330 356 q 349 344 362 331 q 374 318 377 308 q 377 324 378 341 q 380 358 381 375 l 432 375 l 432 59 l 507 59 l 507 0 l 377 0 l 377 30 l 377 63 q 373 53 362 41 q 350 29 332 18 q 313 7 288 0 q 264 -8 234 -8 q 192 -8 156 8 q 119 23 92 50 q 66 76 50 112 q 35 147 35 187 z m 98 188 q 98 159 108 134 q 119 110 137 92 q 155 74 180 64 q 205 53 234 53 q 263 53 288 64 q 313 74 331 92 q 349 110 360 134 q 370 159 370 188 q 370 216 360 241 q 349 266 331 284 q 313 302 288 312 q 263 323 234 323 q 205 323 180 312 q 155 302 137 284 q 119 266 108 241 q 98 216 98 188 z"},"L":{"x_min":0,"x_max":569,"ha":569,"o":"m 35 59 l 97 59 l 97 640 l 35 640 l 35 700 l 243 700 l 243 640 l 160 640 l 160 59 l 475 59 l 475 154 l 534 154 l 534 0 l 35 0 z"},"3":{"x_min":0,"x_max":515,"ha":515,"o":"m 161 336 l 322 588 l 162 588 l 162 535 l 103 535 l 103 650 l 429 650 l 269 408 q 305 400 336 382 q 368 364 391 338 q 414 311 427 278 q 440 244 440 205 q 440 161 423 122 q 406 84 377 55 q 348 26 309 9 q 270 -8 226 -8 q 179 -8 138 10 q 98 29 69 61 l 115 105 q 135 82 163 68 q 191 53 225 53 q 256 53 284 65 q 312 77 333 98 q 354 119 366 146 q 378 174 378 205 q 378 236 366 264 q 354 291 333 311 q 312 331 284 343 q 256 355 225 355 q 191 355 161 336 z"},";":{"x_min":0,"x_max":201,"ha":201,"o":"m 71 292 q 71 311 84 323 q 97 335 114 335 q 129 335 142 323 q 155 311 155 292 q 155 273 142 262 q 129 250 114 250 q 97 250 84 262 q 71 273 71 292 z m 138 86 q 116 34 95 -17 q 74 -68 52 -120 l -5 -120 q 15 -68 34 -17 q 52 34 72 86 z"},"J":{"x_min":0,"x_max":294,"ha":294,"o":"m 35 700 l 259 700 l 259 90 q 259 34 242 -9 q 224 -52 194 -81 q 164 -110 123 -126 q 82 -142 35 -143 l 35 -84 q 70 -82 100 -70 q 130 -57 152 -34 q 173 -12 185 20 q 197 52 197 93 l 197 640 l 35 640 z"},"V":{"x_min":0,"x_max":820,"ha":820,"o":"m 35 700 l 257 700 l 257 640 l 183 640 q 237 514 290 388 q 343 263 397 137 l 406 106 l 415 137 q 469 263 522 388 q 574 513 628 640 l 564 640 l 564 700 l 785 700 l 785 640 l 691 640 l 406 -32 q 334 137 263 304 q 192 471 120 640 l 35 640 z"},"\"":{"x_min":0,"x_max":322,"ha":322,"o":"m 196 472 l 196 720 l 259 720 q 258 657 257 596 q 256 535 255 472 z m 63 472 l 63 720 l 126 720 q 125 657 124 596 q 123 535 122 472 z"},"7":{"x_min":0,"x_max":469,"ha":469,"o":"m 423 650 l 131 0 l 59 0 l 325 588 l 73 588 l 73 535 l 14 535 l 14 650 z"},"S":{"x_min":0,"x_max":478,"ha":478,"o":"m 28 84 l 28 195 l 88 195 l 88 106 q 115 83 153 67 q 191 51 241 51 q 271 51 298 60 q 326 69 347 86 q 368 103 381 128 q 394 154 394 186 q 394 241 370 271 q 345 301 308 318 q 270 334 226 345 q 183 356 145 374 q 107 393 82 425 q 56 457 54 517 q 53 550 62 584 q 72 617 94 644 q 117 670 154 687 q 190 704 243 704 q 278 704 323 694 q 368 685 413 649 l 413 546 l 353 546 l 353 619 q 334 630 306 637 q 278 644 243 644 q 211 644 187 634 q 163 623 148 606 q 132 589 124 566 q 116 544 116 519 q 116 475 141 452 q 166 429 204 414 q 241 400 285 388 q 329 376 367 354 q 405 331 430 292 q 456 254 456 187 q 456 142 440 106 q 423 70 394 44 q 366 19 328 6 q 290 -8 247 -8 q 208 -8 174 0 q 140 8 112 22 q 83 35 62 51 q 40 67 28 84 z"},"}":{"x_min":0,"x_max":320,"ha":320,"o":"m 290 329 l 290 265 q 264 264 248 248 q 232 233 224 210 q 216 188 214 163 q 211 138 211 119 l 211 -31 q 211 -77 202 -102 q 193 -126 178 -136 q 163 -147 144 -148 q 124 -149 103 -149 l 47 -149 l 47 -88 l 95 -88 q 110 -88 120 -84 q 130 -79 136 -67 q 142 -55 144 -34 q 147 -14 147 18 l 147 164 q 147 195 154 218 q 161 241 171 257 q 181 273 192 282 q 204 292 213 298 q 202 305 190 315 q 179 325 169 342 q 159 359 153 384 q 147 408 147 444 l 147 579 q 147 611 144 632 q 142 652 136 664 q 130 676 120 680 q 110 685 95 685 l 47 685 l 47 746 l 103 746 q 124 746 144 745 q 163 744 178 734 q 193 723 202 698 q 211 674 211 628 l 211 475 q 211 455 214 430 q 216 406 224 384 q 232 361 248 346 q 264 330 290 329 z"},"Z":{"x_min":0,"x_max":629,"ha":629,"o":"m 594 222 l 594 0 l 35 0 l 35 60 l 488 640 l 51 640 l 51 735 l 114 735 l 114 700 l 565 700 l 565 640 l 112 60 l 534 60 l 534 222 z"},"x":{"x_min":0,"x_max":515,"ha":515,"o":"m 35 375 l 243 375 l 243 315 l 200 315 l 266 225 l 330 315 l 288 315 l 288 375 l 480 375 l 480 315 l 405 315 l 305 177 q 326 147 348 118 q 369 89 391 59 l 480 59 l 480 0 l 272 0 l 272 59 l 313 59 q 296 82 281 103 q 266 124 250 146 l 187 59 l 226 59 l 226 0 l 35 0 l 35 59 l 110 59 q 136 94 161 128 q 186 162 211 197 q 189 227 168 256 q 146 286 125 315 l 35 315 z"},")":{"x_min":0,"x_max":400,"ha":400,"o":"m 302 289 q 302 214 288 146 q 274 78 251 20 q 228 -38 198 -86 q 168 -133 137 -166 q 124 -161 111 -156 q 98 -150 85 -144 q 114 -111 142 -66 q 169 -21 191 34 q 213 89 226 153 q 239 217 239 288 q 239 359 226 423 q 213 487 191 542 q 169 597 142 642 q 114 687 85 720 q 98 726 111 732 q 124 738 137 744 q 168 711 198 664 q 228 616 251 558 q 274 500 288 432 q 302 364 302 289 z"},"&":{"x_min":0,"x_max":700,"ha":700,"o":"m 440 375 l 601 375 l 601 314 l 503 314 l 503 260 q 503 234 503 196 q 503 159 490 127 l 561 13 l 512 -19 l 460 66 q 432 31 392 12 q 351 -8 303 -8 q 262 -8 226 8 q 190 23 163 50 q 136 76 120 112 q 105 147 105 188 q 105 224 118 256 q 130 288 152 314 q 173 339 202 356 q 232 374 267 380 l 196 496 q 178 526 170 558 q 163 590 168 620 q 174 651 192 678 q 210 706 243 726 q 271 743 300 746 q 330 750 358 744 q 386 739 410 728 q 435 717 454 705 l 429 656 q 415 664 397 672 q 379 681 360 686 q 341 690 322 688 q 302 687 285 676 q 237 646 232 601 q 227 556 253 512 l 432 220 q 440 234 440 249 z m 168 188 q 168 159 178 134 q 188 110 206 92 q 224 73 249 62 q 274 52 303 52 q 345 52 376 72 q 407 92 424 124 l 303 322 q 243 320 206 284 q 168 247 168 188 z"},"_":{"x_min":0,"x_max":600,"ha":600,"o":"m 500 0 l 100 0 l 100 61 l 500 61 z"},"v":{"x_min":0,"x_max":586,"ha":586,"o":"m 35 375 l 239 375 l 239 315 l 180 315 q 211 258 241 200 q 271 143 294 86 q 317 142 346 200 q 376 258 408 315 l 349 315 l 349 375 l 551 375 l 551 315 l 473 315 q 428 230 384 146 q 339 62 294 -23 q 249 62 204 146 q 160 230 115 315 l 35 315 z"},"O":{"x_min":0,"x_max":786,"ha":786,"o":"m 35 349 q 35 423 63 488 q 91 554 140 602 q 188 651 253 680 q 318 708 392 708 q 466 708 532 680 q 597 651 646 602 q 694 554 722 488 q 751 423 751 349 q 751 275 722 210 q 694 145 646 96 q 597 48 532 20 q 466 -8 392 -8 q 318 -8 253 20 q 188 48 140 96 q 91 145 63 210 q 35 275 35 349 z m 97 349 q 97 287 120 233 q 143 179 183 138 q 223 98 277 74 q 331 51 392 51 q 453 51 507 74 q 561 98 602 138 q 642 179 666 233 q 689 287 689 349 q 689 410 666 464 q 642 519 602 560 q 561 601 508 624 q 454 648 393 648 q 332 648 278 624 q 224 601 184 560 q 144 519 120 464 q 97 410 97 349 z"},"(":{"x_min":0,"x_max":415,"ha":415,"o":"m 125 291 q 125 366 139 434 q 153 502 176 560 q 199 618 228 666 q 258 713 290 746 q 303 740 316 734 q 328 729 342 723 q 313 690 286 645 q 258 600 236 545 q 214 490 201 426 q 188 362 188 291 q 188 220 201 156 q 214 92 236 37 q 258 -18 286 -63 q 313 -108 342 -141 q 328 -147 316 -152 q 303 -158 290 -164 q 258 -131 228 -84 q 199 -36 176 22 q 153 80 139 148 q 125 216 125 291 z"},"C":{"x_min":0,"x_max":610,"ha":610,"o":"m 515 546 l 515 620 q 457 648 392 648 q 331 648 278 624 q 224 601 184 560 q 144 519 120 464 q 97 410 97 349 q 97 287 120 233 q 143 179 183 138 q 223 98 276 74 q 330 51 391 51 q 432 51 469 62 q 506 72 540 92 l 574 42 q 534 19 488 6 q 443 -8 392 -8 q 318 -8 253 20 q 188 48 140 96 q 91 145 63 210 q 35 275 35 349 q 35 423 63 488 q 91 554 140 602 q 188 651 253 680 q 318 708 392 708 q 443 708 488 695 q 534 682 575 658 l 575 546 z"},"W":{"x_min":0,"x_max":1191,"ha":1191,"o":"m 35 700 l 257 700 l 257 640 l 183 640 q 237 514 290 388 q 343 263 397 137 l 406 106 q 435 202 478 296 q 522 389 561 482 q 544 521 527 560 q 510 600 493 640 l 405 640 l 405 700 l 627 700 l 627 640 l 556 640 q 610 514 662 388 q 715 263 770 137 l 779 106 l 788 137 q 842 263 894 388 q 947 513 1000 640 l 934 640 l 934 700 l 1156 700 l 1156 640 l 1064 640 q 992 471 921 304 q 850 137 779 -32 l 602 385 l 592 416 q 575 360 552 304 q 530 247 505 190 q 480 134 454 78 q 429 22 406 -32 q 334 137 263 304 q 192 471 120 640 l 35 640 z"},"A":{"x_min":0,"x_max":800,"ha":800,"o":"m 35 59 l 115 59 q 186 229 257 396 q 328 562 400 732 q 472 562 542 396 q 613 229 685 59 l 765 59 l 765 0 l 557 0 l 557 59 l 622 59 q 597 117 574 174 q 550 231 525 289 l 275 289 q 250 231 226 174 q 202 117 177 59 l 243 59 l 243 0 l 35 0 z m 409 563 l 399 594 q 398 592 397 587 q 396 582 394 577 l 390 563 q 385 550 374 526 q 364 501 352 471 q 339 441 326 408 q 312 376 300 348 l 500 348 z"},"f":{"x_min":0,"x_max":319,"ha":319,"o":"m 35 59 l 96 59 l 96 314 l 35 314 l 35 375 l 95 375 l 95 517 q 95 573 112 616 q 130 659 160 688 q 190 718 231 734 q 272 749 319 751 l 319 691 q 285 690 256 678 q 226 665 204 642 q 183 620 170 588 q 158 556 158 516 l 158 375 l 279 375 l 279 314 l 158 314 l 158 59 l 243 59 l 243 0 l 35 0 z"},"Q":{"x_min":0,"x_max":808,"ha":808,"o":"m 97 349 q 97 287 120 233 q 143 179 183 138 q 223 98 276 74 q 330 51 391 51 q 452 51 506 74 q 561 98 602 138 q 642 179 666 233 q 689 287 689 349 q 689 410 666 464 q 642 519 602 560 q 561 601 507 624 q 453 648 392 648 q 331 648 278 624 q 224 601 184 560 q 144 519 120 464 q 97 410 97 349 z m 35 349 q 35 423 63 488 q 91 554 140 602 q 188 651 253 680 q 318 708 392 708 q 466 708 532 680 q 597 651 646 602 q 694 554 722 488 q 751 423 751 349 q 751 257 708 181 q 664 105 593 59 l 773 59 l 773 0 l 466 0 q 428 -8 392 -8 q 318 -8 253 20 q 188 48 140 96 q 91 145 63 210 q 35 275 35 349 z"},"w":{"x_min":0,"x_max":839,"ha":839,"o":"m 612 375 l 804 375 l 804 315 l 732 315 q 689 230 646 146 q 604 62 562 -23 l 426 247 l 290 -23 q 247 62 204 146 q 162 230 119 315 l 35 315 l 35 375 l 228 375 l 228 315 l 181 315 q 210 258 238 200 q 266 143 290 86 q 307 130 328 172 q 348 214 369 256 l 369 315 l 311 315 l 311 375 l 515 375 l 515 315 l 453 315 q 482 258 510 200 q 538 143 562 86 q 585 144 613 201 q 641 258 670 315 l 612 315 z"},"-":{"x_min":0,"x_max":300,"ha":300,"o":"m 53 158 l 53 219 l 237 219 l 237 158 z"},"E":{"x_min":0,"x_max":571,"ha":571,"o":"m 35 59 l 99 59 l 99 640 l 35 640 l 35 700 l 522 700 l 522 546 l 462 546 l 462 640 l 161 640 l 161 382 l 483 382 l 483 323 l 161 323 l 161 59 l 476 59 l 476 154 l 536 154 l 536 0 l 35 0 z"},"s":{"x_min":0,"x_max":327,"ha":327,"o":"m 105 111 l 105 66 q 121 57 137 55 q 153 53 173 53 q 178 53 188 55 q 197 57 207 63 q 217 69 224 79 q 232 89 233 106 q 234 128 222 140 q 209 151 190 158 q 171 166 148 172 q 126 179 106 190 q 87 201 74 220 q 61 240 61 274 q 61 303 72 324 q 83 344 100 357 q 117 370 137 376 q 157 382 175 382 q 182 382 196 380 q 209 379 224 375 q 240 371 255 364 q 270 356 281 344 l 281 264 l 225 264 l 225 311 q 214 318 200 320 q 185 322 178 322 q 155 322 138 310 q 122 298 124 273 q 126 256 140 246 q 153 236 172 228 q 191 220 212 212 q 234 204 252 191 q 271 178 284 158 q 296 138 296 107 q 296 92 290 72 q 284 52 270 34 q 256 16 232 4 q 208 -8 171 -8 q 157 -8 140 -6 q 123 -4 106 0 q 90 5 74 12 q 59 20 49 31 l 49 111 z"},">":{"x_min":0,"x_max":650,"ha":650,"o":"m 116 -14 l 116 70 q 189 112 262 154 q 335 196 408 238 q 335 280 262 322 q 189 364 116 406 l 116 490 q 226 427 334 364 q 443 301 553 238 q 443 175 334 112 q 226 49 116 -14 z"},"l":{"x_min":0,"x_max":278,"ha":278,"o":"m 35 59 l 110 59 l 110 690 l 42 690 l 42 750 l 172 750 l 172 59 l 243 59 l 243 0 l 35 0 z"},"8":{"x_min":0,"x_max":510,"ha":510,"o":"m 163 502 q 163 484 170 468 q 177 452 190 440 q 202 429 219 422 q 236 416 255 416 q 294 416 320 440 q 346 465 346 502 q 346 521 339 538 q 332 556 320 569 q 308 582 291 590 q 274 597 255 597 q 236 597 219 590 q 202 582 190 569 q 177 556 170 538 q 163 521 163 502 z m 105 205 q 105 174 116 146 q 128 119 148 98 q 168 77 195 65 q 222 53 253 53 q 284 53 312 65 q 340 77 361 98 q 382 119 394 146 q 406 174 406 205 q 406 235 394 262 q 382 289 362 309 q 342 329 314 341 q 287 353 256 354 q 224 354 196 342 q 169 330 148 310 q 128 290 116 263 q 105 236 105 205 z m 41 205 q 41 267 74 316 q 106 365 158 390 q 131 409 115 438 q 99 468 99 504 q 99 536 111 564 q 123 592 144 613 q 165 634 193 646 q 221 658 253 658 q 285 658 313 646 q 341 633 362 612 q 383 591 396 563 q 408 535 408 503 q 408 468 392 438 q 376 409 349 390 q 402 365 435 316 q 468 267 468 205 q 468 161 451 122 q 434 84 404 55 q 375 26 336 9 q 297 -8 254 -8 q 210 -8 172 9 q 133 26 104 55 q 75 84 58 122 q 41 161 41 205 z"},"\\":{"x_min":0,"x_max":365,"ha":365,"o":"m 75 736 q 145 546 214 358 q 283 171 353 -19 l 283 -19 q 213 171 144 358 q 75 546 5 736 z"},"e":{"x_min":0,"x_max":445,"ha":445,"o":"m 233 323 q 202 323 176 311 q 150 299 132 279 q 114 259 105 233 q 96 207 99 178 q 156 200 213 222 q 270 243 327 265 q 312 291 288 307 q 263 323 233 323 z m 407 230 l 116 119 q 133 89 164 71 q 194 53 233 53 q 260 53 284 63 q 307 73 324 90 q 333 79 342 68 q 352 56 362 45 q 336 20 304 6 q 271 -8 233 -8 q 192 -8 156 8 q 120 23 93 50 q 66 76 50 112 q 35 147 35 188 q 35 228 50 264 q 66 300 93 326 q 120 353 156 368 q 192 384 233 384 q 264 384 292 372 q 319 361 342 340 q 364 320 381 292 q 398 263 407 230 z"},"b":{"x_min":0,"x_max":542,"ha":542,"o":"m 35 59 l 110 59 l 110 690 l 42 690 l 42 750 l 172 750 l 172 350 q 170 339 168 330 q 167 320 165 310 q 169 320 182 333 q 195 346 214 358 q 233 369 257 376 q 281 384 309 384 q 351 384 387 368 q 423 353 450 326 q 476 299 492 264 q 507 228 507 188 q 507 148 492 112 q 476 77 450 50 q 423 23 387 8 q 351 -8 309 -8 q 279 -8 254 0 q 230 7 212 18 q 193 29 181 41 q 169 53 165 63 l 165 30 l 165 0 l 35 0 z m 444 188 q 444 216 434 241 q 424 266 406 284 q 388 302 363 312 q 338 323 309 323 q 279 323 254 312 q 229 302 211 284 q 193 266 182 241 q 172 216 172 188 q 172 159 182 134 q 193 110 211 92 q 229 74 254 64 q 279 53 309 53 q 338 53 363 64 q 388 74 406 92 q 424 110 434 134 q 444 159 444 188 z"},"%":{"x_min":0,"x_max":726,"ha":726,"o":"m 462 111 q 462 85 479 68 q 496 51 522 51 q 548 51 565 68 q 582 85 582 111 q 582 137 565 154 q 548 171 522 171 q 496 171 479 154 q 462 137 462 111 z m 522 -10 q 497 -10 474 0 q 452 9 436 26 q 419 42 409 64 q 399 86 399 112 q 399 137 409 159 q 419 181 436 197 q 452 213 474 222 q 497 232 522 232 q 547 232 569 222 q 591 213 608 197 q 625 181 635 159 q 645 137 645 112 q 645 86 635 64 q 625 42 608 26 q 591 9 569 0 q 547 -10 522 -10 z m 158 389 q 158 363 175 346 q 192 328 218 328 q 244 328 261 346 q 278 363 278 389 q 278 414 261 432 q 244 449 218 449 q 192 449 175 432 q 158 414 158 389 z m 218 267 q 193 267 170 276 q 148 286 132 302 q 115 319 105 341 q 95 363 95 389 q 95 414 105 436 q 115 458 132 474 q 148 491 170 500 q 193 510 218 510 q 243 510 265 500 q 287 491 304 474 q 321 458 331 436 q 341 414 341 389 q 341 363 331 341 q 321 319 304 302 q 287 286 265 276 q 243 267 218 267 z m 184 0 q 259 126 333 250 q 407 374 482 500 l 551 500 q 476 374 402 250 q 328 126 253 0 z"},"m":{"x_min":0,"x_max":849,"ha":849,"o":"m 606 59 l 683 59 l 683 247 q 681 276 662 298 q 642 320 602 322 q 574 322 548 312 q 523 303 504 286 q 484 269 472 246 q 460 222 460 195 l 460 59 l 528 59 l 528 0 l 321 0 l 321 59 l 398 59 l 398 247 q 396 276 376 298 q 357 320 317 322 q 288 322 262 312 q 237 302 217 285 q 197 268 186 244 q 174 221 174 193 l 174 59 l 243 59 l 243 0 l 35 0 l 35 59 l 112 59 l 112 315 l 43 315 l 43 375 l 165 375 l 166 353 q 167 332 168 316 q 170 299 171 278 q 192 326 235 354 q 278 382 335 383 q 388 383 420 356 q 453 328 459 283 q 481 329 523 356 q 565 382 620 383 q 677 383 710 352 q 744 321 746 271 l 746 59 l 814 59 l 814 0 l 606 0 z"},"#":{"x_min":0,"x_max":571,"ha":571,"o":"m 211 382 q 207 351 204 321 q 200 291 196 260 l 317 260 q 321 291 324 321 q 328 351 332 382 z m 286 0 q 292 51 298 100 q 304 148 310 199 l 189 199 q 183 148 177 100 q 171 51 165 0 l 102 0 q 108 51 114 100 q 120 148 126 199 l 26 199 q 28 214 30 230 q 31 245 33 260 l 133 260 q 137 291 140 321 q 144 351 148 382 l 49 382 q 51 397 52 412 q 53 427 55 443 l 155 443 q 161 494 167 543 q 173 592 179 643 l 242 643 q 236 592 230 543 q 224 494 218 443 l 339 443 q 345 494 351 543 q 357 592 363 643 l 426 643 q 420 592 414 543 q 408 494 402 443 l 514 443 q 512 427 511 412 q 510 397 508 382 l 395 382 q 391 351 388 321 q 384 291 380 260 l 492 260 q 490 245 488 230 q 487 214 485 199 l 373 199 q 367 148 361 100 q 355 51 349 0 z"},",":{"x_min":0,"x_max":200,"ha":200,"o":"m 152 86 q 130 34 109 -17 q 88 -68 66 -120 l 10 -120 q 29 -68 48 -17 q 66 34 86 86 z"},"n":{"x_min":0,"x_max":563,"ha":563,"o":"m 320 59 l 398 59 l 398 247 q 396 276 376 298 q 357 320 317 322 q 288 322 262 312 q 237 302 217 285 q 197 268 186 244 q 174 221 174 193 l 174 59 l 243 59 l 243 0 l 35 0 l 35 59 l 112 59 l 112 315 l 43 315 l 43 375 l 165 375 l 166 353 q 167 332 168 316 q 170 299 171 278 q 191 326 236 354 q 280 383 335 383 q 392 383 425 352 q 458 321 460 271 l 460 59 l 528 59 l 528 0 l 320 0 z"},"h":{"x_min":0,"x_max":563,"ha":563,"o":"m 320 59 l 398 59 l 398 247 q 396 276 376 298 q 357 320 317 322 q 288 322 262 312 q 237 302 217 285 q 197 268 186 244 q 174 221 174 193 l 174 59 l 243 59 l 243 0 l 35 0 l 35 59 l 112 59 l 112 690 l 37 690 l 37 750 l 174 750 l 174 323 l 171 278 q 193 326 236 354 q 278 381 335 383 q 392 383 425 352 q 458 321 460 271 l 460 59 l 528 59 l 528 0 l 320 0 z"},"z":{"x_min":0,"x_max":433,"ha":433,"o":"m 398 116 l 398 0 l 35 0 l 35 61 q 104 125 162 188 q 221 250 290 315 l 47 315 l 47 410 l 103 410 l 103 375 l 377 375 l 377 314 q 308 249 250 187 q 191 125 122 61 l 342 61 l 342 116 z"},"B":{"x_min":0,"x_max":534,"ha":534,"o":"m 35 59 l 88 59 l 88 640 l 35 640 l 35 700 l 259 700 q 307 700 346 690 q 386 680 414 659 q 443 638 458 604 q 474 571 474 525 q 474 463 444 416 q 414 369 352 352 q 381 346 408 332 q 434 318 454 296 q 475 274 487 245 q 499 216 499 180 q 499 135 480 102 q 462 68 431 46 q 400 23 360 12 q 320 0 277 0 l 35 0 z m 150 322 l 150 59 l 272 59 q 306 59 336 67 q 366 75 388 91 q 411 107 424 132 q 437 156 437 188 q 437 223 422 248 q 407 274 382 290 q 356 307 324 314 q 291 322 257 322 z m 150 640 l 150 382 l 270 382 q 335 382 373 420 q 411 457 411 517 q 411 583 371 612 q 331 640 267 640 z"},"K":{"x_min":0,"x_max":686,"ha":686,"o":"m 443 59 l 500 59 q 437 139 374 218 q 312 298 249 378 l 174 308 l 174 59 l 257 59 l 257 0 l 35 0 l 35 59 l 112 59 l 112 640 l 35 640 l 35 700 l 243 700 l 243 640 l 174 640 l 174 406 q 174 398 174 390 q 173 383 172 375 l 190 397 l 445 640 l 400 640 l 400 700 l 608 700 l 608 640 l 523 640 l 290 418 q 362 328 432 239 q 502 150 574 59 l 651 59 l 651 0 l 443 0 z"},"R":{"x_min":0,"x_max":574,"ha":574,"o":"m 35 59 l 88 59 l 88 640 l 35 640 l 35 700 l 245 700 q 278 700 317 690 q 356 679 390 656 q 425 634 448 599 q 471 564 471 514 q 471 440 433 391 q 395 342 323 326 l 448 59 l 539 59 l 539 0 l 409 0 l 257 322 q 246 321 235 321 q 224 321 213 321 l 150 321 l 150 59 l 257 59 l 257 0 l 35 0 z m 150 381 l 245 381 q 293 381 325 394 q 357 406 376 426 q 394 445 402 468 q 409 492 409 514 q 409 539 396 562 q 384 585 362 602 q 341 619 311 630 q 281 640 246 640 l 150 640 z"},"T":{"x_min":0,"x_max":623,"ha":623,"o":"m 197 59 l 281 59 l 281 640 l 94 640 l 94 546 l 35 546 l 35 700 l 588 700 l 588 546 l 528 546 l 528 640 l 343 640 l 343 59 l 419 59 l 419 0 l 197 0 z"},"P":{"x_min":0,"x_max":506,"ha":506,"o":"m 35 59 l 88 59 l 88 640 l 35 640 l 35 700 l 245 700 q 278 700 317 690 q 356 679 390 656 q 425 634 448 599 q 471 564 471 514 q 471 426 417 374 q 363 321 260 321 l 150 321 l 150 59 l 257 59 l 257 0 l 35 0 z m 150 381 l 245 381 q 293 381 325 394 q 357 406 376 426 q 394 445 402 468 q 409 492 409 514 q 409 539 396 562 q 384 585 362 602 q 341 619 311 630 q 281 640 246 640 l 150 640 z"},"|":{"x_min":0,"x_max":255,"ha":255,"o":"m 93 -232 l 93 700 l 156 700 l 156 -232 z"},"t":{"x_min":0,"x_max":324,"ha":324,"o":"m 120 619 l 183 619 l 183 375 l 289 375 l 289 314 l 183 314 l 183 59 l 261 59 l 261 0 l 120 0 l 120 314 l 35 314 l 35 375 l 120 375 z"},"M":{"x_min":0,"x_max":971,"ha":971,"o":"m 827 700 l 935 700 l 935 640 l 851 640 l 851 59 l 936 59 l 936 0 l 715 0 l 715 59 l 789 59 l 789 522 q 789 528 790 540 q 790 553 791 558 q 786 550 780 541 q 773 532 766 523 q 740 487 706 442 q 671 396 633 348 q 595 299 557 250 q 519 200 485 156 q 429 229 388 283 q 346 337 316 376 q 287 414 268 440 q 248 466 234 484 q 221 501 212 513 q 202 525 194 536 l 179 558 q 180 549 180 540 q 181 532 181 522 l 181 59 l 257 59 l 257 0 l 35 0 l 35 59 l 119 59 l 119 640 l 35 640 l 35 700 l 143 700 q 173 661 214 608 q 255 554 301 494 q 347 435 394 373 q 442 311 485 256 q 571 367 656 478 q 741 589 827 700 z"},"g":{"x_min":0,"x_max":543,"ha":543,"o":"m 381 375 l 508 375 l 508 315 l 432 315 l 432 -47 q 432 -92 417 -129 q 402 -166 376 -193 q 349 -220 314 -235 q 278 -250 238 -250 q 193 -249 152 -232 q 110 -215 81 -190 l 123 -140 q 144 -160 174 -173 q 204 -186 236 -186 q 264 -186 288 -175 q 313 -164 331 -144 q 349 -125 360 -98 q 370 -72 370 -40 l 370 30 q 372 38 373 46 q 374 54 376 62 q 370 51 358 38 q 345 26 327 16 q 309 6 286 0 q 262 -7 234 -7 q 192 -7 156 8 q 119 24 92 50 q 66 77 50 112 q 35 147 35 187 q 35 227 50 262 q 66 298 92 325 q 119 352 156 368 q 192 384 234 384 q 262 384 286 376 q 311 368 330 356 q 349 344 362 331 q 374 318 377 308 q 377 324 378 341 q 380 358 381 375 z m 98 188 q 98 159 108 134 q 119 110 137 92 q 155 74 180 64 q 205 53 234 53 q 263 53 288 64 q 313 74 331 92 q 349 110 360 134 q 370 159 370 188 q 370 216 360 241 q 349 266 331 284 q 313 302 288 312 q 263 323 234 323 q 205 323 180 312 q 155 302 137 284 q 119 266 108 241 q 98 216 98 188 z"},"j":{"x_min":0,"x_max":198,"ha":198,"o":"m 35 375 l 163 375 l 163 -2 q 163 -62 144 -107 q 125 -152 90 -181 l 47 -135 q 72 -112 86 -79 q 101 -46 101 -1 l 101 315 l 35 315 z m 92 514 q 92 532 105 544 q 118 557 134 557 q 150 557 163 544 q 176 532 176 514 q 176 495 163 484 q 150 472 134 472 q 118 472 105 484 q 92 495 92 514 z"},"i":{"x_min":0,"x_max":278,"ha":278,"o":"m 35 59 l 109 59 l 109 315 l 35 315 l 35 375 l 171 375 l 171 59 l 243 59 l 243 0 l 35 0 z m 98 514 q 98 532 111 544 q 124 557 141 557 q 157 557 170 544 q 182 532 182 514 q 182 495 170 484 q 157 472 141 472 q 124 472 111 484 q 98 495 98 514 z"},"y":{"x_min":0,"x_max":609,"ha":609,"o":"m 92 -191 l 179 -191 q 202 -143 226 -96 q 251 -48 274 -1 q 234 78 194 157 q 155 236 115 315 l 35 315 l 35 375 l 239 375 l 239 315 l 180 315 q 214 251 247 186 q 280 121 306 56 q 332 120 365 185 q 398 250 432 315 l 372 315 l 372 375 l 574 375 l 574 315 l 497 315 q 433 188 370 62 q 306 -63 243 -191 l 300 -191 l 300 -250 l 92 -250 z"},"@":{"x_min":0,"x_max":990,"ha":990,"o":"m 351 188 q 351 159 361 134 q 371 110 389 92 q 407 74 432 64 q 457 53 486 53 q 516 53 541 64 q 566 74 584 92 q 602 110 612 134 q 623 159 623 188 q 623 216 612 241 q 602 266 584 284 q 566 302 541 312 q 516 323 486 323 q 457 323 432 312 q 407 302 389 284 q 371 266 361 241 q 351 216 351 188 z m 902 188 q 899 134 881 98 q 863 61 838 40 q 812 18 783 9 q 754 0 727 0 l 630 0 l 630 30 l 630 63 q 626 53 614 40 q 602 28 584 18 q 565 7 540 0 q 516 -8 486 -8 q 444 -8 408 8 q 372 23 346 50 q 319 76 304 112 q 288 147 288 187 q 288 227 304 262 q 319 298 346 324 q 372 351 408 366 q 444 382 486 382 q 513 382 538 374 q 562 366 581 355 q 600 344 612 331 q 625 318 630 308 q 630 324 632 341 q 633 358 634 375 l 685 375 l 685 61 l 729 61 q 751 61 770 68 q 790 75 805 90 q 820 105 829 129 q 838 153 839 188 q 839 261 812 326 q 784 390 736 438 q 689 486 625 514 q 561 542 489 542 q 416 542 352 514 q 288 486 240 438 q 192 390 164 326 q 137 261 137 188 q 137 115 164 51 q 192 -13 240 -61 q 288 -109 352 -136 q 416 -164 489 -164 q 549 -164 602 -146 q 656 -128 701 -96 q 711 -108 720 -119 q 729 -130 739 -141 q 689 -182 622 -204 q 555 -225 489 -225 q 403 -225 328 -192 q 252 -160 196 -104 q 139 -48 106 28 q 74 103 74 189 q 74 275 106 350 q 139 425 196 481 q 252 537 328 570 q 403 602 489 602 q 575 602 650 570 q 725 537 781 481 q 837 425 870 350 q 902 274 902 188 z"},".":{"x_min":0,"x_max":163,"ha":163,"o":"m 43 42 q 43 61 56 73 q 69 85 85 85 q 101 85 114 73 q 127 61 127 42 q 127 23 114 12 q 101 0 85 0 q 69 0 56 12 q 43 23 43 42 z"},"p":{"x_min":0,"x_max":543,"ha":543,"o":"m 44 -191 l 111 -191 l 111 315 l 35 315 l 35 375 l 162 375 q 162 358 163 341 q 164 324 166 307 q 170 317 182 330 q 195 344 214 356 q 233 367 258 375 q 282 383 309 383 q 351 383 388 368 q 424 352 450 326 q 477 299 492 264 q 508 228 508 188 q 508 147 492 112 q 477 76 450 49 q 424 22 388 6 q 351 -9 309 -9 q 280 -9 256 -2 q 233 5 214 16 q 196 26 184 38 q 172 50 167 61 q 169 53 170 46 q 171 39 173 32 l 173 -191 l 252 -191 l 252 -250 l 44 -250 z m 445 188 q 445 216 435 240 q 425 265 407 283 q 389 301 364 312 q 339 322 309 322 q 280 322 255 312 q 230 301 212 283 q 194 265 184 240 q 173 216 173 188 q 173 159 184 134 q 194 110 212 92 q 230 73 255 62 q 280 52 309 52 q 339 52 364 62 q 389 73 407 92 q 425 110 435 134 q 445 159 445 188 z"},"X":{"x_min":0,"x_max":699,"ha":699,"o":"m 35 700 l 257 700 l 257 640 l 200 640 q 235 586 270 534 q 304 482 338 429 l 350 406 l 361 429 l 498 640 l 442 640 l 442 700 l 664 700 l 664 640 l 574 640 l 388 352 q 436 278 484 206 q 532 133 580 59 l 664 59 l 664 0 l 442 0 l 442 59 l 502 59 l 368 264 q 362 274 357 284 q 352 295 345 305 l 334 281 q 298 225 262 170 q 226 115 191 59 l 257 59 l 257 0 l 35 0 l 35 59 l 114 59 l 308 358 l 124 640 l 35 640 z"},"*":{"x_min":0,"x_max":335,"ha":335,"o":"m 230 575 q 249 564 268 553 q 287 542 307 531 q 299 517 291 503 q 283 489 275 475 q 255 486 236 498 q 218 510 198 521 q 198 499 198 478 q 197 456 197 434 l 137 434 l 137 521 q 118 510 99 500 q 80 489 61 478 q 45 507 29 533 q 49 544 68 554 q 86 565 106 576 q 87 587 68 599 q 49 611 30 622 q 38 635 45 648 q 52 660 59 674 q 79 663 98 651 q 117 639 137 628 l 137 720 l 201 720 q 201 697 200 674 q 200 651 200 628 q 220 639 240 650 q 259 662 279 673 q 287 659 294 646 q 301 634 309 621 q 289 610 270 598 q 250 586 230 575 z"},"Y":{"x_min":0,"x_max":768,"ha":768,"o":"m 276 59 l 346 59 l 346 268 q 290 361 235 454 q 180 546 124 640 l 35 640 l 35 700 l 257 700 l 257 640 l 200 640 q 244 568 286 496 q 329 425 372 353 l 383 324 l 384 324 l 396 353 l 566 640 l 511 640 l 511 700 l 733 700 l 733 640 l 643 640 q 587 546 532 454 q 477 361 422 267 l 422 59 l 497 59 l 497 0 l 276 0 z"},"c":{"x_min":0,"x_max":394,"ha":394,"o":"m 358 35 q 332 15 300 4 q 269 -8 233 -8 q 192 -8 156 8 q 120 23 93 50 q 66 76 50 112 q 35 147 35 188 q 35 228 50 264 q 66 300 93 326 q 120 353 156 368 q 192 384 233 384 q 270 384 302 372 q 333 361 359 341 l 359 233 l 303 233 l 303 304 q 270 323 233 323 q 204 323 179 312 q 154 302 136 284 q 118 266 108 241 q 97 216 97 188 q 97 159 108 134 q 118 110 136 92 q 154 74 179 64 q 204 53 233 53 q 259 53 280 60 q 302 68 320 82 z"},"!":{"x_min":0,"x_max":201,"ha":201,"o":"m 100 11 q 84 11 71 23 q 58 35 58 54 q 58 73 71 84 q 84 96 100 96 q 116 96 129 84 q 142 73 142 54 q 142 35 129 23 q 116 11 100 11 z m 68 750 l 131 750 l 131 166 l 68 166 z"},"/":{"x_min":0,"x_max":363,"ha":363,"o":"m 17 -19 q 87 171 156 358 q 225 546 295 736 l 358 736 q 288 546 219 358 q 150 171 80 -19 z"},"[":{"x_min":0,"x_max":338,"ha":338,"o":"m 83 -149 l 83 746 l 266 746 l 266 685 l 146 685 l 146 -88 l 266 -88 l 266 -149 z"},"6":{"x_min":0,"x_max":520,"ha":520,"o":"m 113 204 q 113 173 124 146 q 136 118 156 98 q 176 77 203 65 q 230 53 261 53 q 292 53 320 65 q 348 77 369 98 q 390 118 402 146 q 414 173 414 204 q 414 235 402 262 q 390 290 369 310 q 348 330 320 342 q 292 354 261 354 q 230 354 203 342 q 176 330 156 310 q 136 290 124 262 q 113 235 113 204 z m 49 196 q 49 268 80 330 q 110 393 158 447 q 206 501 265 548 q 324 595 380 636 q 390 624 400 612 q 409 599 419 587 q 334 530 280 480 q 227 429 198 390 q 210 401 226 408 q 243 415 262 415 q 306 415 345 398 q 384 382 413 354 q 442 325 459 286 q 476 248 476 204 q 476 160 459 122 q 442 83 413 54 q 384 26 345 9 q 306 -8 262 -8 q 219 -8 180 8 q 142 24 114 52 q 85 79 68 116 q 50 154 49 196 z"},"r":{"x_min":0,"x_max":357,"ha":357,"o":"m 35 59 l 112 59 l 112 315 l 43 315 l 43 375 l 165 375 l 166 353 q 167 332 168 316 q 170 299 171 278 q 183 303 201 322 q 219 342 240 356 q 260 369 282 376 q 303 383 322 383 l 318 322 q 287 322 260 312 q 234 302 215 285 q 196 268 185 244 q 174 221 174 193 l 174 59 l 243 59 l 243 0 l 35 0 z"},"2":{"x_min":0,"x_max":512,"ha":512,"o":"m 204 61 l 422 61 l 422 160 l 482 160 l 482 0 l 53 0 q 116 62 174 121 q 233 180 278 236 q 324 291 352 343 q 379 395 379 442 q 379 485 366 514 q 353 544 333 562 q 313 581 290 589 q 266 597 245 597 q 204 597 178 582 q 151 568 136 547 q 121 526 115 502 q 109 478 109 459 q 109 394 148 352 l 110 314 q 95 325 83 342 q 71 359 63 378 q 55 398 50 419 q 46 440 46 459 q 46 499 59 535 q 72 571 97 598 q 122 626 160 642 q 197 658 245 658 q 289 658 326 642 q 362 626 388 598 q 414 570 428 533 q 442 496 442 454 q 442 402 421 352 q 400 302 366 253 q 333 204 290 156 q 247 109 204 61 z"},"{":{"x_min":0,"x_max":306,"ha":306,"o":"m 30 265 l 30 329 q 54 330 70 344 q 85 357 94 377 q 103 397 106 420 q 109 444 109 464 l 109 628 q 109 674 118 698 q 127 723 142 734 q 157 744 176 745 q 196 746 217 746 l 273 746 l 273 685 l 225 685 q 210 685 200 680 q 190 676 184 664 q 178 652 176 632 q 173 611 173 579 l 173 444 q 173 408 167 384 q 161 359 151 342 q 141 325 130 315 q 118 305 107 298 q 118 292 130 282 q 141 271 151 254 q 161 237 167 212 q 173 187 173 153 l 173 18 q 173 -14 176 -34 q 178 -55 184 -67 q 190 -79 200 -84 q 210 -88 225 -88 l 273 -88 l 273 -149 l 217 -149 q 195 -149 176 -148 q 156 -147 141 -136 q 126 -124 118 -98 q 109 -71 109 -20 l 109 130 q 109 150 106 174 q 103 197 94 217 q 85 237 70 250 q 54 264 30 265 z"},"9":{"x_min":0,"x_max":525,"ha":525,"o":"m 398 423 q 398 454 386 482 q 375 509 354 530 q 334 550 307 562 q 280 574 249 574 q 218 574 190 562 q 163 550 142 530 q 121 509 109 482 q 97 454 97 423 q 97 392 109 364 q 121 337 142 317 q 163 297 190 285 q 218 273 249 273 q 280 273 307 285 q 334 297 354 317 q 375 337 386 364 q 398 392 398 423 z m 462 423 q 462 353 430 292 q 399 230 350 176 q 302 123 244 76 q 185 30 131 -9 q 121 3 111 16 q 101 28 92 40 q 177 97 230 147 q 284 197 313 237 q 288 212 249 212 q 205 212 166 228 q 127 245 98 274 q 69 302 52 340 q 35 379 35 423 q 35 466 52 505 q 69 544 98 572 q 127 601 166 618 q 205 635 249 635 q 293 635 332 618 q 370 601 399 572 q 428 544 445 505 q 462 466 462 423 z"}," ":{"x_min":0,"x_max":300,"ha":300,"o":""},"I":{"x_min":0,"x_max":292,"ha":292,"o":"m 35 59 l 113 59 l 113 640 l 35 640 l 35 700 l 257 700 l 257 640 l 176 640 l 176 59 l 257 59 l 257 0 l 35 0 z"},"H":{"x_min":0,"x_max":755,"ha":755,"o":"m 499 700 l 720 700 l 720 640 l 642 640 l 642 59 l 720 59 l 720 0 l 499 0 l 499 59 l 579 59 l 579 323 l 176 323 l 176 59 l 257 59 l 257 0 l 35 0 l 35 59 l 113 59 l 113 640 l 35 640 l 35 700 l 257 700 l 257 640 l 176 640 l 176 382 l 579 382 l 579 640 l 499 640 z"},"4":{"x_min":0,"x_max":522,"ha":522,"o":"m 264 59 l 340 59 l 340 183 l 37 183 l 403 658 l 403 244 l 500 244 l 500 183 l 403 183 l 403 59 l 486 59 l 486 0 l 264 0 z m 340 474 l 164 244 l 340 244 z"},"~":{"x_min":0,"x_max":489,"ha":489,"o":"m 269 486 q 254 503 242 508 q 231 513 217 513 q 210 513 200 511 q 191 509 182 504 q 174 498 168 488 q 161 479 160 464 l 124 467 q 125 486 134 502 q 142 517 154 528 q 167 538 182 544 q 198 549 213 549 q 235 549 252 540 q 270 530 287 514 q 302 497 314 492 q 326 487 340 487 q 347 487 356 489 q 365 491 374 496 q 382 502 388 512 q 395 521 397 536 q 405 535 414 534 q 423 534 432 533 q 431 513 422 498 q 414 483 402 472 q 389 462 374 457 q 359 452 344 452 q 321 452 304 462 q 286 471 269 486 z"},"D":{"x_min":0,"x_max":632,"ha":632,"o":"m 35 60 l 90 60 l 90 640 l 35 640 l 35 700 l 245 700 q 317 700 381 676 q 445 651 493 605 q 541 559 569 494 q 597 430 597 349 q 597 290 576 228 q 556 166 510 116 q 464 65 390 32 q 317 0 211 0 l 35 0 z m 152 640 l 152 60 l 230 60 q 301 60 358 83 q 414 106 454 145 q 493 184 514 237 q 535 290 535 350 q 535 416 512 470 q 489 524 449 562 q 409 599 355 620 q 301 640 240 640 z"},"^":{"x_min":0,"x_max":470,"ha":470,"o":"m 232 660 q 262 615 292 570 q 322 524 352 479 l 306 479 q 287 503 268 527 q 250 551 232 576 q 213 551 195 527 q 177 503 158 479 l 112 479 q 142 524 172 570 q 202 615 232 660 z"},"0":{"x_min":0,"x_max":616,"ha":616,"o":"m 37 327 q 37 395 56 456 q 75 516 110 561 q 146 606 196 632 q 245 658 307 658 q 369 658 418 631 q 468 604 502 558 q 537 512 555 452 q 573 391 573 323 q 573 249 550 188 q 527 127 490 84 q 452 40 403 16 q 354 -8 302 -8 q 250 -8 202 17 q 154 42 117 86 q 80 130 58 192 q 37 253 37 327 z m 100 327 q 100 268 116 218 q 132 168 160 132 q 188 95 225 74 q 262 53 303 53 q 343 53 380 73 q 418 93 446 129 q 475 165 492 215 q 510 265 510 324 q 510 371 498 420 q 486 468 460 508 q 435 547 397 572 q 359 597 307 597 q 255 597 216 573 q 177 549 152 510 q 126 471 113 422 q 100 374 100 327 z"},"F":{"x_min":0,"x_max":557,"ha":557,"o":"m 35 59 l 99 59 l 99 640 l 35 640 l 35 700 l 522 700 l 522 546 l 462 546 l 462 640 l 161 640 l 161 382 l 483 382 l 483 323 l 161 323 l 161 59 l 257 59 l 257 0 l 35 0 z"},"`":{"x_min":0,"x_max":200,"ha":200,"o":"m 24 612 q 47 579 69 546 q 91 512 114 479 l 68 479 q 41 512 14 546 q -13 579 -40 612 z"},"k":{"x_min":0,"x_max":515,"ha":515,"o":"m 287 59 l 317 59 q 294 89 272 119 q 250 149 229 179 l 172 126 l 172 59 l 243 59 l 243 0 l 35 0 l 35 59 l 110 59 l 110 690 l 42 690 l 42 750 l 172 750 l 172 200 l 295 315 l 246 315 l 246 375 l 439 375 l 439 315 l 372 315 q 346 290 322 268 q 299 245 273 220 q 302 180 332 140 q 361 100 390 59 l 480 59 l 480 0 l 287 0 z"},"u":{"x_min":0,"x_max":554,"ha":554,"o":"m 35 375 l 167 375 l 167 128 q 169 98 188 76 q 208 55 248 53 q 276 53 302 62 q 328 72 348 90 q 367 107 379 130 q 391 154 391 182 l 391 315 l 321 315 l 321 375 l 453 375 l 453 53 l 519 53 l 519 0 l 393 0 l 392 52 l 394 97 q 374 49 330 20 q 285 -8 230 -8 q 173 -8 140 23 q 107 54 105 104 l 105 315 l 35 315 z"},"]":{"x_min":0,"x_max":342,"ha":342,"o":"m 251 746 l 251 -149 l 68 -149 l 68 -88 l 188 -88 l 188 685 l 68 685 l 68 746 z"},"U":{"x_min":0,"x_max":712,"ha":712,"o":"m 35 700 l 257 700 l 257 640 l 174 640 l 174 229 q 174 186 188 153 q 201 120 225 98 q 249 75 282 63 q 316 51 356 51 q 395 51 428 63 q 462 75 486 98 q 511 120 524 153 q 538 186 538 229 l 538 640 l 456 640 l 456 700 l 677 700 l 677 640 l 600 640 l 600 226 q 600 169 582 125 q 563 81 530 52 q 497 22 452 7 q 408 -8 356 -8 q 303 -8 258 7 q 214 22 182 52 q 149 81 130 125 q 112 169 112 226 l 112 640 l 35 640 z"},"o":{"x_min":0,"x_max":468,"ha":468,"o":"m 35 188 q 35 228 50 264 q 66 300 93 326 q 120 353 156 368 q 192 384 233 384 q 275 384 312 368 q 348 353 375 326 q 402 300 418 264 q 433 228 433 188 q 433 147 418 112 q 402 76 375 50 q 348 23 312 8 q 275 -8 233 -8 q 192 -8 156 8 q 120 23 93 50 q 66 76 50 112 q 35 147 35 188 z m 98 187 q 98 159 108 134 q 119 110 137 92 q 155 74 180 64 q 204 53 232 53 q 260 53 285 64 q 310 74 328 92 q 347 110 358 134 q 368 159 368 187 q 368 215 358 240 q 347 265 328 284 q 310 302 285 312 q 260 323 232 323 q 204 323 180 312 q 155 302 137 284 q 119 265 108 240 q 98 215 98 187 z"},"N":{"x_min":0,"x_max":850,"ha":850,"o":"m 35 59 l 119 59 l 119 640 l 35 640 l 35 700 l 147 700 l 652 132 l 671 106 l 668 138 l 668 640 l 594 640 l 594 700 l 815 700 l 815 640 l 730 640 l 730 -32 l 197 559 l 179 584 l 181 553 l 181 59 l 257 59 l 257 0 l 35 0 z"},"+":{"x_min":0,"x_max":543,"ha":543,"o":"m 234 51 l 234 200 l 86 200 l 86 261 l 234 261 l 234 411 l 297 411 l 297 261 l 446 261 l 446 200 l 297 200 l 297 51 z"},"G":{"x_min":0,"x_max":609,"ha":609,"o":"m 574 298 l 574 40 q 534 17 488 4 q 443 -10 392 -10 q 318 -10 253 18 q 188 46 140 94 q 91 143 63 208 q 35 273 35 347 q 35 421 63 486 q 91 552 140 600 q 188 649 253 678 q 318 706 392 706 q 443 706 488 693 q 534 680 575 656 l 540 605 q 473 646 392 646 q 331 646 278 622 q 224 599 184 558 q 144 517 120 462 q 97 408 97 347 q 97 285 120 231 q 143 177 183 136 q 223 96 276 72 q 330 49 391 49 q 456 49 512 76 l 512 238 l 388 238 l 388 298 z"},"q":{"x_min":0,"x_max":545,"ha":545,"o":"m 290 -191 l 370 -191 l 370 32 q 371 39 372 46 q 374 53 376 61 q 371 50 358 38 q 346 26 328 16 q 310 5 286 -2 q 262 -9 234 -9 q 192 -9 156 6 q 119 22 92 49 q 66 76 50 112 q 35 147 35 188 q 35 228 50 264 q 66 299 92 326 q 119 352 156 368 q 192 383 234 383 q 261 383 286 375 q 310 367 329 356 q 348 344 360 330 q 373 317 377 307 q 377 324 379 341 q 381 358 381 375 l 510 375 l 510 315 l 432 315 l 432 -191 l 498 -191 l 498 -250 l 290 -250 z m 98 188 q 98 159 108 134 q 119 110 137 92 q 155 73 180 62 q 205 52 234 52 q 263 52 288 62 q 313 73 331 92 q 349 110 360 134 q 370 159 370 188 q 370 216 360 240 q 349 265 331 283 q 313 301 288 312 q 263 322 234 322 q 205 322 180 312 q 155 301 137 283 q 119 265 108 240 q 98 216 98 188 z"},"d":{"x_min":0,"x_max":542,"ha":542,"o":"m 377 30 l 377 63 q 373 53 362 41 q 350 29 332 18 q 313 7 288 0 q 264 -8 234 -8 q 192 -8 156 8 q 119 23 92 50 q 66 77 50 112 q 35 148 35 188 q 35 228 50 264 q 66 299 92 326 q 119 353 156 368 q 192 384 234 384 q 261 384 285 376 q 309 369 328 358 q 347 346 360 333 q 372 320 377 310 q 375 324 374 338 q 372 352 370 367 l 370 690 l 302 690 l 302 750 l 432 750 l 432 59 l 507 59 l 507 0 l 377 0 z m 98 188 q 98 159 108 134 q 119 110 137 92 q 155 74 180 64 q 205 53 234 53 q 263 53 288 64 q 313 74 331 92 q 349 110 360 134 q 370 159 370 188 q 370 216 360 241 q 349 266 331 284 q 313 302 288 312 q 263 323 234 323 q 205 323 180 312 q 155 302 137 284 q 119 266 108 241 q 98 216 98 188 z"},"1":{"x_min":0,"x_max":278,"ha":278,"o":"m 36 59 l 115 59 l 115 589 l 34 589 l 34 650 l 178 650 l 178 59 l 258 59 l 258 0 l 36 0 z"},"5":{"x_min":0,"x_max":543,"ha":543,"o":"m 430 650 l 430 535 l 370 535 l 370 589 l 206 589 l 206 407 q 230 415 254 415 q 297 415 336 398 q 375 382 404 354 q 434 325 451 287 q 468 249 468 205 q 468 161 451 122 q 434 84 404 55 q 375 26 336 9 q 297 -8 254 -8 q 211 -8 174 8 q 136 23 107 51 l 153 94 q 192 53 253 53 q 284 53 312 65 q 340 77 361 98 q 382 119 394 146 q 406 174 406 205 q 406 236 394 263 q 382 290 361 310 q 340 330 312 342 q 284 354 253 354 q 218 354 189 342 q 160 331 143 307 l 143 650 z"}}}
